<svg width="800" height="800" viewBox="0 0 800 800" fill="none" xmlns="http://www.w3.org/2000/svg">
<path d="M683.337 200H116.667" stroke="#EEEEEE" stroke-width="50" stroke-linecap="round"/>
<path d="M627.773 283.333L612.44 513.303C606.54 601.8 603.59 646.05 574.757 673.023C545.923 700 501.577 700 412.883 700H387.107C298.412 700 254.065 700 225.231 673.023C196.398 646.05 193.448 601.8 187.548 513.303L172.217 283.333" stroke="#EEEEEE" stroke-width="50" stroke-linecap="round"/>
<path d="M316.667 366.667L333.334 533.333" stroke="#EEEEEE" stroke-width="50" stroke-linecap="round"/>
<path d="M483.334 366.667L466.667 533.333" stroke="#EEEEEE" stroke-width="50" stroke-linecap="round"/>
<path d="M216.667 200C218.53 200 219.461 200 220.305 199.979C247.753 199.283 271.968 181.83 281.308 156.011C281.595 155.216 281.889 154.333 282.478 152.566L285.715 142.857C288.477 134.569 289.859 130.425 291.691 126.907C299.001 112.869 312.525 103.121 328.154 100.626C332.071 100 336.44 100 345.177 100H454.824C463.56 100 467.93 100 471.847 100.626C487.477 103.121 501 112.869 508.31 126.907C510.144 130.425 511.524 134.569 514.287 142.857L517.524 152.566C518.11 154.331 518.407 155.217 518.694 156.011C528.034 181.83 552.247 199.283 579.697 199.979C580.54 200 581.47 200 583.334 200" stroke="#EEEEEE" stroke-width="50"/>
</svg>
