<svg width="800" height="800" viewBox="0 0 800 800" fill="none" xmlns="http://www.w3.org/2000/svg">
<path d="M400 433.333C418.41 433.333 433.333 418.41 433.333 400C433.333 381.59 418.41 366.667 400 366.667C381.59 366.667 366.667 381.59 366.667 400C366.667 418.41 381.59 433.333 400 433.333Z" stroke="#EEEEEE" stroke-width="66.6667" stroke-linecap="round" stroke-linejoin="round"/>
<path d="M633.333 433.333C651.743 433.333 666.667 418.41 666.667 400C666.667 381.59 651.743 366.667 633.333 366.667C614.923 366.667 600 381.59 600 400C600 418.41 614.923 433.333 633.333 433.333Z" stroke="#EEEEEE" stroke-width="66.6667" stroke-linecap="round" stroke-linejoin="round"/>
<path d="M166.667 433.333C185.076 433.333 200 418.41 200 400C200 381.59 185.076 366.667 166.667 366.667C148.257 366.667 133.333 381.59 133.333 400C133.333 418.41 148.257 433.333 166.667 433.333Z" stroke="#EEEEEE" stroke-width="66.6667" stroke-linecap="round" stroke-linejoin="round"/>
</svg>
