<svg width="800" height="800" viewBox="0 0 800 800" fill="none" xmlns="http://www.w3.org/2000/svg">
<path d="M425.414 270.682C433.706 260.339 432.042 245.235 421.696 236.945C411.354 228.656 396.25 230.32 387.962 240.663L425.414 270.682ZM217.952 491.162L236.129 506.832C236.317 506.614 236.5 506.394 236.679 506.17L217.952 491.162ZM212.48 504.538L188.527 502.973L188.506 503.427L212.48 504.538ZM208 601.274L184.026 600.163C183.971 601.354 184.004 602.547 184.127 603.734L208 601.274ZM233.184 623.258L233.969 647.245C235.569 647.19 237.16 646.979 238.719 646.608L233.184 623.258ZM329.184 600.506L334.72 623.859L335.091 623.766L329.184 600.506ZM341.504 592.698L360.019 607.971L360.227 607.712L341.504 592.698ZM553.507 366.688C561.798 356.346 560.138 341.242 549.798 332.949C539.459 324.657 524.352 326.317 516.061 336.659L553.507 366.688ZM388.061 240.657C379.77 250.997 381.427 266.102 391.77 274.395C402.109 282.688 417.213 281.028 425.507 270.688L388.061 240.657ZM457.6 192.312L476.323 207.328C476.637 206.935 476.941 206.532 477.232 206.119L457.6 192.312ZM509.728 182.072L525.082 163.626C524.317 162.99 523.514 162.402 522.678 161.866L509.728 182.072ZM581.312 241.656L598.298 224.701C597.776 224.18 597.232 223.682 596.666 223.21L581.312 241.656ZM581.024 294.072L564.224 276.932C563.546 277.599 562.906 278.305 562.307 279.048L581.024 294.072ZM516.061 336.659C507.763 346.995 509.424 362.09 519.76 370.387C530.096 378.685 545.21 377.024 553.507 366.688L516.061 336.659ZM430.518 252.116C428.554 239.007 416.336 229.973 403.229 231.938C390.118 233.902 381.085 246.121 383.05 259.229L430.518 252.116ZM538.016 375.453C551.149 373.67 560.349 361.574 558.566 348.442C556.781 335.307 544.688 326.106 531.552 327.891L538.016 375.453ZM387.962 240.663L199.225 476.15L236.679 506.17L425.414 270.682L387.962 240.663ZM199.775 475.488C193.14 483.184 189.188 492.832 188.527 502.973L236.429 506.099C236.412 506.368 236.306 506.627 236.129 506.832L199.775 475.488ZM188.506 503.427L184.026 600.163L231.974 602.384L236.454 505.648L188.506 503.427ZM184.127 603.734C186.74 629.075 208.508 648.077 233.969 647.245L232.399 599.27C232.297 599.274 232.247 599.258 232.214 599.245C232.168 599.229 232.108 599.197 232.046 599.142C231.984 599.088 231.944 599.034 231.921 598.992C231.905 598.96 231.884 598.912 231.873 598.81L184.127 603.734ZM238.719 646.608L334.72 623.859L323.648 577.152L227.649 599.904L238.719 646.608ZM335.091 623.766C344.867 621.283 353.6 615.754 360.019 607.971L322.989 577.424C323.066 577.334 323.165 577.27 323.277 577.242L335.091 623.766ZM360.227 607.712L553.507 366.688L516.061 336.659L322.781 577.683L360.227 607.712ZM425.507 270.688L476.323 207.328L438.877 177.297L388.061 240.657L425.507 270.688ZM477.232 206.119C481.667 199.812 490.285 198.118 496.778 202.279L522.678 161.866C494.541 143.835 457.194 151.171 437.968 178.506L477.232 206.119ZM494.374 200.518L565.958 260.102L596.666 223.21L525.082 163.626L494.374 200.518ZM564.326 258.612C566.755 261.046 568.112 264.352 568.093 267.793L616.093 268.056C616.182 251.81 609.776 236.201 598.298 224.701L564.326 258.612ZM568.093 267.793C568.077 271.233 566.682 274.524 564.224 276.932L597.824 311.213C609.427 299.841 616.003 284.303 616.093 268.056L568.093 267.793ZM562.307 279.048L516.061 336.659L553.507 366.688L599.741 309.097L562.307 279.048ZM383.05 259.229C394.227 333.831 463.267 385.61 538.016 375.453L531.552 327.891C482.819 334.513 437.808 300.754 430.518 252.116L383.05 259.229Z" fill="#EEEEEE"/>
</svg>
