<svg width="800" height="800" viewBox="0 0 800 800" fill="none" xmlns="http://www.w3.org/2000/svg">
<g clip-path="url(#clip0_137_441)">
<path fill-rule="evenodd" clip-rule="evenodd" d="M800 727.086L743.44 780.952L573.72 619.352L630.28 565.448L800 727.086ZM320 552.381C187.68 552.381 80.0002 449.867 80.0002 323.81C80.0002 197.79 187.68 95.2381 320 95.2381C452.32 95.2381 560 197.79 560 323.81C560 449.867 452.32 552.381 320 552.381ZM320 19.0476C143.28 19.0476 0 155.505 0 323.81C0 492.114 143.28 628.571 320 628.571C496.72 628.571 640 492.114 640 323.81C640 155.505 496.72 19.0476 320 19.0476Z" fill="#EEEEEE"/>
</g>
<defs>
<clipPath id="clip0_137_441">
<rect width="800" height="800" fill="white"/>
</clipPath>
</defs>
</svg>
